<svg width="22" height="22" viewBox="0 0 22 22" fill="none" xmlns="http://www.w3.org/2000/svg">
<path d="M20.0034 6.81175C19.9191 6.6899 19.8065 6.59031 19.6753 6.5215C19.544 6.45269 19.3981 6.41672 19.2499 6.41667H6.72183L5.664 3.8775C5.5253 3.54312 5.29043 3.25746 4.98917 3.05673C4.68792 2.856 4.33384 2.74925 3.97184 2.75H1.83325V4.58334H3.97184L8.3205 15.0196C8.39016 15.1866 8.50766 15.3292 8.65822 15.4295C8.80878 15.5298 8.98566 15.5834 9.16658 15.5833H16.4999C16.8822 15.5833 17.2241 15.3459 17.3588 14.9893L20.1088 7.656C20.1608 7.51724 20.1784 7.36794 20.16 7.22091C20.1416 7.07387 20.0879 6.93348 20.0034 6.81175V6.81175ZM15.8647 13.75H9.778L7.48633 8.25H17.9272L15.8647 13.75Z" fill="white"/>
<path d="M9.625 19.25C10.3844 19.25 11 18.6344 11 17.875C11 17.1156 10.3844 16.5 9.625 16.5C8.86561 16.5 8.25 17.1156 8.25 17.875C8.25 18.6344 8.86561 19.25 9.625 19.25Z" fill="white"/>
<path d="M16.0417 19.25C16.8011 19.25 17.4167 18.6344 17.4167 17.875C17.4167 17.1156 16.8011 16.5 16.0417 16.5C15.2824 16.5 14.6667 17.1156 14.6667 17.875C14.6667 18.6344 15.2824 19.25 16.0417 19.25Z" fill="white"/>
</svg>
