<svg width="101" height="25" viewBox="0 0 101 25" fill="none" xmlns="http://www.w3.org/2000/svg">
<path d="M0 24.7852V0.175781H3.9375V24.7852H0ZM5.73047 13.6758V9.84375H8.08594C9.79688 9.84375 10.7227 9.01172 10.8633 7.34766C10.8633 7.20703 10.8633 7.06641 10.8633 6.92578C10.6992 5.07422 9.77344 4.10156 8.08594 4.00781H5.73047V0.175781H8.40234C12.668 0.246094 14.8125 2.47266 14.8359 6.85547C14.8359 10.2539 13.7578 12.375 11.6016 13.2188C10.7109 13.5234 9.64453 13.6758 8.40234 13.6758C8.35547 13.6758 7.46484 13.6758 5.73047 13.6758ZM16.7695 17.9297V6.36328C16.7695 5.12109 17.2969 3.85547 18.3516 2.56641C19.7578 0.878906 21.5391 0.0234375 23.6953 0V3.90234C22.4766 3.92578 21.5625 4.58203 20.9531 5.87109C20.7656 6.29297 20.6719 6.64453 20.6719 6.92578V17.9297C20.6719 19.1953 21.3281 20.1328 22.6406 20.7422C23.0391 20.9297 23.3789 21.0234 23.6602 21.0234V24.9609C22.3242 24.9609 20.9883 24.4805 19.6523 23.5195C17.7539 22.1133 16.793 20.25 16.7695 17.9297ZM25.5938 24.9609V21.0234C26.2031 21.0234 26.8359 20.7422 27.4922 20.1797C28.1953 19.5469 28.5586 18.7969 28.582 17.9297V6.92578C28.582 6.22266 28.2773 5.54297 27.668 4.88672C27.082 4.25391 26.3906 3.92578 25.5938 3.90234V0C27.9609 0 29.8594 1.01953 31.2891 3.05859C32.1094 4.23047 32.5195 5.33203 32.5195 6.36328V17.9297C32.5195 20.5312 31.3594 22.5234 29.0391 23.9062C27.8203 24.6094 26.6719 24.9609 25.5938 24.9609ZM35.332 24.7852V0.175781H39.2695V24.7852H35.332ZM41.0625 14.4141V10.8984H43.0312C45.0703 10.8984 46.1953 9.92578 46.4062 7.98047C46.4297 7.76953 46.4414 7.57031 46.4414 7.38281C46.4414 5.41406 45.5508 4.25391 43.7695 3.90234C43.4414 3.85547 43.1016 3.83203 42.75 3.83203H41.0625V0.175781H43.207C46.3242 0.246094 48.4219 1.40625 49.5 3.65625C49.9453 4.59375 50.168 5.67188 50.168 6.89062C50.1445 9.49219 49.3477 11.3789 47.7773 12.5508C48.9961 13.2539 49.7695 14.5078 50.0977 16.3125C50.1445 16.6172 50.1797 16.8984 50.2031 17.1562L50.8008 24.7852H47.1445L46.6172 18.5273C46.4297 16.5586 45.9023 15.3164 45.0352 14.8008C44.5195 14.543 43.875 14.4141 43.1016 14.4141H41.0625ZM52.207 4.00781V0.175781H67.4297V4.00781H61.8047V24.7852H57.8672V4.00781H52.207ZM69.4688 24.7852V0.175781H82.2656V4.04297H73.4062V10.582H78.9609V14.5195H73.4062V20.8828H82.2656V24.7852H69.4688ZM85.1133 24.7852V6.43359H85.3945L89.0508 12.3047V24.7852H85.1133ZM85.1133 2.70703V0.175781H88.3828L100.758 20.0391V24.7852H98.8594L85.1133 2.70703ZM96.8203 10.4414V0.175781H100.758V16.3125H100.477L96.8203 10.4414Z" fill="white"/>
</svg>
