<svg width="22" height="22" viewBox="0 0 22 22" fill="none" xmlns="http://www.w3.org/2000/svg">
<path d="M19.2501 17.4167L14.5256 12.6922C15.399 11.3648 15.7488 9.76053 15.5073 8.18999C15.2658 6.61945 14.4502 5.19437 13.2183 4.19068C11.9864 3.18698 10.426 2.67606 8.83901 2.75684C7.25206 2.83762 5.75153 3.50434 4.62794 4.62794C3.50434 5.75153 2.83762 7.25206 2.75684 8.83901C2.67606 10.426 3.18698 11.9864 4.19068 13.2183C5.19437 14.4502 6.61945 15.2658 8.18999 15.5073C9.76053 15.7488 11.3648 15.399 12.6922 14.5256L17.4167 19.2501L19.2501 17.4167ZM4.58341 9.16675C4.58341 6.6395 6.6395 4.58341 9.16675 4.58341C11.694 4.58341 13.7501 6.6395 13.7501 9.16675C13.7501 11.694 11.694 13.7501 9.16675 13.7501C6.6395 13.7501 4.58341 11.694 4.58341 9.16675Z" fill="white"/>
</svg>
